<svg width="14" height="15" viewBox="0 0 14 15" fill="none" xmlns="http://www.w3.org/2000/svg">
<path d="M4.8125 2.65271V8.09433C4.76788 8.10615 4.71494 8.12321 4.67556 8.13502C4.46381 8.20021 4.31681 8.26846 4.21094 8.34021C4.16175 8.37199 4.11587 8.40864 4.074 8.44958C4.03988 8.48546 3.99219 8.55896 3.99219 8.55896L3.9375 8.65477V9.65271H4.375V13.1527H5.25V9.65271H8.75V13.1527H9.625V9.65271H10.0625V8.65477L10.0078 8.55896C10.0078 8.55896 9.95969 8.48546 9.92556 8.44958C9.88383 8.40866 9.8381 8.37202 9.78906 8.34021C9.68319 8.26846 9.53619 8.20021 9.324 8.13502C9.28463 8.12321 9.23212 8.10615 9.1875 8.09433V2.65271H8.3125V3.09021H5.6875V2.65271H4.8125ZM5.6875 3.96521H6.5625V7.91627C6.23088 7.92502 5.93338 7.93377 5.6875 7.9574V3.96521ZM7.4375 3.96521H8.3125V7.9574C8.06619 7.93333 7.76912 7.92502 7.4375 7.91627V3.96521Z" fill="black"/>
</svg>
