<svg width="30" height="30" viewBox="0 0 30 30" fill="none" xmlns="http://www.w3.org/2000/svg">
<path d="M24.8435 9.375C24.8435 9.74796 24.6954 10.1056 24.4316 10.3694C24.1679 10.6331 23.8102 10.7812 23.4373 10.7812H20.156C20.1539 12.7697 19.363 14.6761 17.9569 16.0822C16.5509 17.4882 14.6445 18.2791 12.656 18.2812H12.0701L19.6873 25.2094C19.8265 25.3329 19.9398 25.4828 20.0206 25.6504C20.1015 25.818 20.1483 26 20.1583 26.1858C20.1683 26.3716 20.1413 26.5576 20.0789 26.7329C20.0165 26.9082 19.9199 27.0694 19.7948 27.2071C19.6696 27.3448 19.5184 27.4563 19.3498 27.5352C19.1812 27.614 18.9987 27.6586 18.8128 27.6664C18.6268 27.6741 18.4412 27.6449 18.2667 27.5804C18.0921 27.5159 17.9321 27.4174 17.7959 27.2906L7.48337 17.9156C7.27281 17.7243 7.12526 17.4735 7.0602 17.1965C6.99514 16.9195 7.01564 16.6293 7.11899 16.3642C7.22234 16.0991 7.40368 15.8716 7.63905 15.7117C7.87442 15.5518 8.15275 15.4671 8.43728 15.4688H12.656C13.8992 15.4688 15.0915 14.9749 15.9706 14.0958C16.8497 13.2167 17.3435 12.0245 17.3435 10.7812H8.43728C8.06432 10.7812 7.70663 10.6331 7.44291 10.3694C7.17919 10.1056 7.03103 9.74796 7.03103 9.375C7.03103 9.00204 7.17919 8.64435 7.44291 8.38063C7.70663 8.11691 8.06432 7.96875 8.43728 7.96875H16.406C15.9694 7.38658 15.4032 6.91406 14.7523 6.58862C14.1015 6.26318 13.3837 6.09375 12.656 6.09375H8.43728C8.06432 6.09375 7.70663 5.94559 7.44291 5.68187C7.17919 5.41815 7.03103 5.06046 7.03103 4.6875C7.03103 4.31454 7.17919 3.95685 7.44291 3.69313C7.70663 3.42941 8.06432 3.28125 8.43728 3.28125H23.4373C23.8102 3.28125 24.1679 3.42941 24.4316 3.69313C24.6954 3.95685 24.8435 4.31454 24.8435 4.6875C24.8435 5.06046 24.6954 5.41815 24.4316 5.68187C24.1679 5.94559 23.8102 6.09375 23.4373 6.09375H18.5049C18.9612 6.66191 19.3323 7.29355 19.6064 7.96875H23.4373C23.8102 7.96875 24.1679 8.11691 24.4316 8.38063C24.6954 8.64435 24.8435 9.00204 24.8435 9.375Z" fill="black"/>
</svg>
